<svg id="svg" version="1.1" xmlns="http://www.w3.org/2000/svg" xmlns:xlink="http://www.w3.org/1999/xlink" width="400" height="515.1968330767538" viewBox="0, 0, 400,515.1968330767538"><g id="svgg"><path id="path0" d="M195.264 11.382 C 186.946 12.037,180.283 14.095,173.380 18.142 C 171.582 19.196,168.177 21.159,157.273 27.430 C 154.911 28.788,151.868 30.551,150.510 31.347 C 149.152 32.143,145.722 34.129,142.888 35.760 C 136.412 39.487,126.796 45.031,122.169 47.706 C 120.220 48.833,117.660 50.313,116.479 50.995 C 113.196 52.892,109.342 55.120,102.630 59.001 C 99.265 60.948,94.868 63.482,92.861 64.633 C 90.853 65.784,88.052 67.399,86.634 68.222 C 83.692 69.931,81.260 71.337,76.221 74.243 C 63.137 81.789,50.567 89.049,49.383 89.744 C 48.615 90.195,46.441 91.453,44.552 92.541 C 42.662 93.628,39.764 95.297,38.111 96.249 C 24.346 104.173,14.904 117.624,11.767 133.777 L 11.290 136.232 11.219 218.894 C 11.145 304.483,11.145 304.436,12.027 308.765 C 14.890 322.814,25.000 337.775,35.681 343.768 C 36.427 344.186,39.018 345.675,41.439 347.077 C 43.859 348.478,49.173 351.548,53.247 353.898 C 57.322 356.248,61.283 358.539,62.050 358.988 C 62.818 359.437,66.876 361.782,71.068 364.199 C 75.260 366.617,83.086 371.133,88.459 374.236 C 93.833 377.339,100.113 380.964,102.415 382.291 C 104.718 383.618,107.762 385.375,109.179 386.194 C 118.911 391.822,134.745 400.968,136.983 402.255 C 138.459 403.104,140.633 404.357,141.814 405.041 C 146.112 407.529,151.151 410.440,155.827 413.135 C 162.065 416.731,172.511 422.762,174.563 423.952 C 186.168 430.688,203.517 432.116,217.316 427.471 C 221.165 426.176,222.338 425.563,235.105 418.192 C 241.659 414.407,248.470 410.475,250.242 409.452 C 252.013 408.430,255.443 406.449,257.864 405.051 C 260.284 403.652,266.613 399.997,271.927 396.928 C 277.241 393.858,282.507 390.816,283.629 390.167 C 285.391 389.146,289.924 386.529,305.636 377.461 C 311.236 374.229,317.587 370.562,319.699 369.341 C 322.459 367.745,326.880 365.193,329.361 363.761 C 330.483 363.114,335.507 360.215,340.526 357.318 C 345.545 354.421,351.100 351.214,352.872 350.192 C 366.889 342.104,366.347 342.442,369.255 340.000 C 378.430 332.295,385.357 320.309,387.918 307.702 C 388.461 305.031,388.622 139.041,388.086 135.148 C 386.210 121.534,376.867 106.277,365.833 98.808 C 364.897 98.175,363.475 97.341,354.697 92.278 C 352.748 91.154,350.212 89.691,349.061 89.025 C 347.909 88.360,346.025 87.271,344.874 86.606 C 343.722 85.940,341.235 84.504,339.345 83.415 C 333.763 80.195,308.624 65.682,303.274 62.589 C 294.604 57.578,286.182 52.713,283.306 51.055 C 280.394 49.375,276.520 47.135,272.142 44.601 C 268.235 42.340,259.894 37.527,256.039 35.310 C 248.062 30.723,242.572 27.553,240.258 26.197 C 238.900 25.402,236.146 23.806,234.138 22.651 C 232.131 21.495,228.894 19.629,226.946 18.503 C 216.915 12.709,206.928 10.464,195.264 11.382 M282.507 64.381 L 290.220 77.877 289.125 78.262 C 282.776 80.490,277.752 84.835,275.840 89.748 C 274.693 92.694,274.712 92.286,274.798 112.346 L 274.877 130.972 250.267 130.972 L 225.658 130.972 225.658 107.783 L 225.658 84.595 199.034 84.595 L 172.410 84.595 172.410 122.169 L 172.410 159.742 223.618 159.742 L 274.826 159.742 274.826 189.372 L 274.826 219.002 287.493 219.002 L 300.161 219.002 300.161 158.991 L 300.161 98.980 324.691 98.982 L 349.222 98.985 356.844 112.337 C 361.036 119.681,364.466 125.775,364.466 125.879 C 364.466 125.983,363.636 126.388,362.622 126.780 C 355.769 129.430,351.133 134.057,349.668 139.711 C 349.362 140.889,349.329 148.417,349.329 216.031 L 349.329 291.045 349.772 292.645 C 351.323 298.240,356.322 303.026,363.231 305.529 C 363.969 305.797,364.573 306.052,364.573 306.096 C 364.573 306.140,361.143 312.177,356.951 319.512 C 352.759 326.846,349.329 332.932,349.329 333.037 C 349.329 333.145,338.802 333.226,324.745 333.226 L 300.161 333.226 300.161 292.968 L 300.161 252.711 198.604 252.711 L 97.048 252.711 97.048 292.968 L 97.048 333.226 72.517 333.217 L 47.987 333.208 40.311 319.734 C 31.604 304.449,32.398 306.068,33.441 305.731 C 40.493 303.449,46.071 298.093,47.531 292.203 C 48.128 289.791,48.059 142.047,47.459 139.702 C 46.008 134.027,40.888 129.017,34.031 126.561 C 33.441 126.350,32.874 126.105,32.772 126.016 C 32.670 125.928,36.045 119.809,40.272 112.418 L 47.957 98.980 72.502 98.980 L 97.048 98.980 97.048 158.991 L 97.048 219.002 161.353 219.002 L 225.658 219.002 225.658 206.227 L 225.658 193.451 174.500 193.451 L 123.343 193.451 123.423 144.122 C 123.509 90.403,123.558 92.840,122.324 89.785 C 120.317 84.816,115.595 80.669,109.332 78.375 C 108.589 78.103,108.009 77.810,108.043 77.724 C 108.077 77.638,111.535 71.564,115.726 64.227 L 123.347 50.886 199.071 50.886 L 274.794 50.886 282.507 64.381 M272.034 304.839 C 272.034 340.948,271.921 338.258,273.577 341.570 C 275.533 345.482,280.798 349.645,285.614 351.088 C 286.653 351.399,287.400 349.868,279.053 364.515 L 271.927 377.017 200.322 377.019 L 128.717 377.021 121.524 364.434 C 113.294 350.031,113.959 351.409,115.074 351.075 C 120.712 349.386,126.124 344.567,127.927 339.632 L 128.502 338.057 128.560 314.385 L 128.617 290.714 151.909 290.714 L 175.201 290.714 175.201 317.874 L 175.201 345.035 200.322 345.035 L 225.443 345.035 225.443 308.749 L 225.443 272.464 248.739 272.464 L 272.034 272.464 272.034 304.839 M151.358 444.019 C 148.293 444.493,146.281 445.857,145.096 448.262 L 144.391 449.696 144.334 476.592 L 144.277 503.489 149.648 503.489 L 155.019 503.489 155.019 481.836 C 155.019 466.840,155.090 459.977,155.251 459.515 C 155.704 458.217,156.638 458.447,157.645 460.104 C 157.901 460.525,159.089 462.415,160.285 464.305 C 161.482 466.194,164.569 471.074,167.146 475.148 C 172.087 482.959,174.383 486.582,175.517 488.352 C 175.895 488.943,177.693 491.784,179.512 494.667 C 183.146 500.425,184.022 501.530,185.789 502.592 C 189.896 505.061,196.669 504.275,199.037 501.055 C 200.618 498.905,200.537 500.542,200.537 470.938 L 200.537 444.444 195.169 444.444 L 189.801 444.444 189.801 466.544 C 189.801 490.157,189.837 489.318,188.830 489.318 C 188.447 489.318,188.530 489.440,183.867 482.018 C 181.678 478.535,179.665 475.346,179.393 474.933 C 178.897 474.180,175.046 468.104,170.478 460.870 C 160.877 445.663,161.581 446.658,159.546 445.422 C 157.521 444.192,154.069 443.600,151.358 444.019 M12.024 473.967 L 12.024 503.489 17.606 503.489 L 23.188 503.489 23.188 490.499 L 23.188 477.509 38.433 477.509 L 53.677 477.509 53.677 490.499 L 53.677 503.489 59.259 503.489 L 64.842 503.489 64.842 473.967 L 64.842 444.444 59.259 444.444 L 53.677 444.444 53.677 456.575 L 53.677 468.706 38.433 468.706 L 23.188 468.706 23.188 456.575 L 23.188 444.444 17.606 444.444 L 12.024 444.444 12.024 473.967 M102.664 444.676 C 98.892 445.165,96.481 447.344,94.629 451.936 C 94.171 453.071,90.943 461.100,87.455 469.780 C 83.967 478.459,79.616 489.281,77.786 493.827 C 75.957 498.374,74.277 502.552,74.055 503.113 L 73.651 504.133 79.726 504.133 L 85.801 504.133 86.143 503.113 C 86.330 502.552,87.079 500.499,87.805 498.551 C 88.532 496.602,90.178 492.158,91.462 488.674 C 92.746 485.191,94.730 479.828,95.870 476.758 C 97.011 473.688,98.315 470.161,98.769 468.921 C 104.968 451.979,104.250 452.494,107.900 462.373 C 109.166 465.797,110.630 469.758,111.154 471.176 C 111.679 472.593,112.480 474.767,112.936 476.006 C 113.392 477.246,114.623 480.580,115.673 483.414 C 116.722 486.248,118.876 492.069,120.460 496.350 L 123.339 504.133 129.302 504.133 C 132.805 504.133,135.266 504.051,135.266 503.935 C 135.266 503.826,133.586 499.550,131.532 494.434 C 126.283 481.353,116.129 456.093,114.653 452.441 C 112.906 448.120,111.581 446.517,108.757 445.306 C 107.968 444.968,104.603 444.360,104.139 444.472 C 104.077 444.487,103.413 444.578,102.664 444.676 M225.872 444.662 C 217.582 445.480,213.505 451.818,214.696 462.041 C 215.566 469.518,218.372 472.372,227.697 475.265 C 247.787 481.496,250.112 482.305,251.536 483.556 C 253.942 485.668,253.983 491.233,251.608 493.266 C 250.191 494.479,250.312 494.471,232.111 494.471 L 215.352 494.471 215.352 498.992 L 215.352 503.514 235.051 503.437 C 256.808 503.353,255.736 503.420,258.641 501.964 C 266.519 498.018,267.247 481.368,259.781 475.888 C 258.057 474.622,255.027 473.436,247.236 470.976 C 227.980 464.896,227.844 464.843,226.625 462.912 C 225.173 460.612,225.394 456.830,227.089 454.954 C 228.468 453.427,228.022 453.462,245.991 453.462 L 261.952 453.462 261.894 449.007 L 261.836 444.552 244.659 444.528 C 235.212 444.514,226.758 444.575,225.872 444.662 M300.376 444.663 C 296.446 445.132,294.049 447.300,292.112 452.138 C 289.941 457.561,276.551 490.884,274.002 497.209 L 271.211 504.133 277.266 504.133 L 283.322 504.133 284.358 501.288 C 284.928 499.724,285.619 497.864,285.893 497.155 C 286.167 496.447,287.899 491.761,289.740 486.742 C 291.582 481.723,293.228 477.279,293.397 476.865 C 293.565 476.452,295.020 472.539,296.630 468.170 C 298.239 463.800,299.896 459.308,300.312 458.186 C 301.748 454.309,302.481 454.354,303.993 458.412 C 305.666 462.900,307.928 469.005,311.230 477.939 C 314.714 487.368,315.714 490.081,318.966 498.925 L 320.880 504.131 326.941 504.132 L 333.002 504.133 332.797 503.650 C 332.684 503.384,331.179 499.640,329.453 495.330 C 327.728 491.020,323.364 480.150,319.757 471.176 C 316.151 462.201,312.772 453.777,312.250 452.457 C 309.773 446.189,306.360 443.949,300.376 444.663 M341.865 471.551 L 341.922 498.658 342.419 499.757 C 344.105 503.483,344.042 503.474,369.136 503.482 L 388.835 503.489 388.835 498.980 L 388.835 494.471 371.974 494.471 C 353.228 494.471,353.891 494.520,353.293 493.090 C 353.024 492.445,352.979 488.930,352.979 468.391 L 352.979 444.444 347.393 444.444 L 341.808 444.444 341.865 471.551 " stroke="none" fill="#04444c" fill-rule="evenodd"></path><path id="path1" d="M115.684 64.363 L 108.019 77.827 109.458 78.382 C 117.127 81.338,121.832 86.158,123.115 92.370 C 123.422 93.854,123.457 99.125,123.457 143.738 L 123.457 193.451 174.557 193.451 L 225.658 193.451 225.658 206.227 L 225.658 219.002 161.353 219.002 L 97.048 219.002 97.048 158.991 L 97.048 98.980 72.517 98.982 L 47.987 98.985 40.365 112.325 C 36.173 119.662,32.716 125.732,32.683 125.813 C 32.651 125.894,33.327 126.233,34.186 126.566 C 41.374 129.351,46.049 133.952,47.541 139.711 C 48.046 141.658,48.061 290.337,47.556 292.333 C 46.132 297.969,41.235 302.748,34.031 305.532 C 33.323 305.806,32.713 306.052,32.676 306.079 C 32.639 306.106,36.065 312.177,40.290 319.570 L 47.972 333.011 72.510 333.011 L 97.048 333.011 97.048 292.861 L 97.048 252.711 198.604 252.711 L 300.161 252.711 300.161 292.861 L 300.161 333.011 324.691 333.005 L 349.222 332.999 356.891 319.557 L 364.560 306.115 362.366 305.220 C 355.534 302.432,351.198 298.084,349.613 292.432 C 349.000 290.244,349.003 141.730,349.616 139.560 C 351.219 133.889,356.349 128.955,363.232 126.461 L 364.575 125.975 363.984 124.950 C 363.658 124.387,360.204 118.318,356.307 111.464 L 349.222 99.002 324.691 98.991 L 300.161 98.980 300.161 158.991 L 300.161 219.002 287.493 219.002 L 274.826 219.002 274.826 189.372 L 274.826 159.742 223.618 159.742 L 172.410 159.742 172.410 122.169 L 172.410 84.595 199.034 84.595 L 225.658 84.595 225.658 107.783 L 225.658 130.972 250.248 130.972 L 274.839 130.972 274.697 112.990 C 274.540 93.028,274.558 92.681,275.918 89.413 C 277.914 84.618,283.268 80.106,289.265 78.166 C 290.279 77.838,291.206 79.711,282.402 64.304 L 274.734 50.886 199.042 50.893 L 123.349 50.899 115.684 64.363 M225.443 308.857 L 225.443 345.250 200.322 345.250 L 175.201 345.250 175.201 317.982 L 175.201 290.714 151.906 290.714 L 128.610 290.714 128.610 314.022 C 128.610 339.601,128.682 338.207,127.204 341.278 C 125.262 345.311,121.657 348.426,116.435 350.580 C 115.383 351.014,114.488 351.465,114.446 351.583 C 114.404 351.702,117.598 357.470,121.544 364.402 L 128.717 377.006 200.316 376.963 L 271.915 376.919 279.151 364.251 C 283.131 357.284,286.322 351.526,286.242 351.456 C 286.163 351.386,285.518 351.104,284.809 350.830 C 279.018 348.588,274.870 344.974,273.009 340.547 C 271.784 337.634,271.820 338.722,271.820 304.222 L 271.820 272.464 248.631 272.464 L 225.443 272.464 225.443 308.857 " stroke="none" fill="#04a39b" fill-rule="evenodd"></path><path id="path2" d="M350.403 380.998 L 350.403 381.965 352.442 381.965 L 354.482 381.965 354.482 387.762 L 354.482 393.559 355.556 393.559 L 356.629 393.559 356.629 387.762 L 356.629 381.965 358.776 381.965 L 360.923 381.965 360.923 380.998 L 360.923 380.032 355.663 380.032 L 350.403 380.032 350.403 380.998 M362.856 386.795 L 362.856 393.559 363.822 393.559 L 364.788 393.559 364.797 388.674 L 364.806 383.790 366.096 386.903 C 366.806 388.615,367.696 390.816,368.073 391.795 L 368.760 393.573 369.611 393.512 L 370.461 393.451 372.448 388.621 L 374.435 383.790 374.443 388.674 L 374.450 393.559 375.416 393.559 L 376.382 393.559 376.382 386.795 L 376.382 380.032 375.148 380.036 L 373.913 380.040 371.776 385.289 C 370.601 388.176,369.622 390.517,369.601 390.492 C 369.566 390.450,366.604 383.220,365.691 380.946 L 365.325 380.034 364.090 380.033 L 362.856 380.032 362.856 386.795 " stroke="none" fill="#040404" fill-rule="evenodd"></path><path id="path3" d="M274.686 111.218 C 274.686 112.222,274.723 112.633,274.768 112.131 C 274.813 111.629,274.813 110.808,274.768 110.306 C 274.723 109.804,274.686 110.215,274.686 111.218 M123.334 183.790 C 123.334 186.565,123.365 187.700,123.402 186.312 C 123.440 184.925,123.440 182.654,123.402 181.267 C 123.365 179.879,123.334 181.014,123.334 183.790 " stroke="none" fill="#045757" fill-rule="evenodd"></path><path id="path4" d="M274.692 115.298 C 274.692 116.656,274.727 117.211,274.770 116.532 C 274.812 115.853,274.812 114.742,274.770 114.063 C 274.727 113.384,274.692 113.940,274.692 115.298 M349.220 216.103 C 349.220 256.962,349.245 273.645,349.275 253.176 C 349.306 232.708,349.306 199.278,349.275 178.888 C 349.245 158.497,349.220 175.244,349.220 216.103 M123.323 191.090 C 123.323 192.448,123.358 193.003,123.401 192.324 C 123.443 191.645,123.443 190.534,123.401 189.855 C 123.358 189.176,123.323 189.732,123.323 191.090 M271.924 304.455 C 271.924 322.110,271.950 329.332,271.981 320.505 C 272.012 311.677,272.012 297.233,271.981 288.406 C 271.950 279.579,271.924 286.801,271.924 304.455 M353.408 299.369 C 353.408 299.406,353.722 299.720,354.106 300.067 L 354.804 300.698 354.173 300.000 C 353.586 299.350,353.408 299.204,353.408 299.369 M60.048 333.172 C 66.799 333.204,77.910 333.204,84.739 333.172 C 91.568 333.141,86.044 333.115,72.464 333.115 C 58.884 333.115,53.296 333.141,60.048 333.172 M312.346 333.172 C 319.106 333.204,330.169 333.204,336.930 333.172 C 343.690 333.141,338.159 333.115,324.638 333.115 C 311.116 333.115,305.585 333.141,312.346 333.172 M187.708 345.196 C 194.646 345.227,205.998 345.227,212.936 345.196 C 219.874 345.164,214.198 345.139,200.322 345.139 C 186.447 345.139,180.770 345.164,187.708 345.196 " stroke="none" fill="#04837c" fill-rule="evenodd"></path></g></svg>